<mxfile host="65bd71144e">
    <diagram id="WzKkoQgD0VywZSgaP-ND" name="工作空间创建">
        <mxGraphModel dx="754" dy="626" grid="1" gridSize="10" guides="1" tooltips="1" connect="1" arrows="1" fold="1" page="1" pageScale="1" pageWidth="827" pageHeight="1169" background="#ffffff" math="0" shadow="0">
            <root>
                <mxCell id="0"/>
                <mxCell id="1" parent="0"/>
                <mxCell id="4" value="Workspace-Server" style="html=1;dropTarget=0;" parent="1" vertex="1">
                    <mxGeometry x="310" y="240" width="150" height="60" as="geometry"/>
                </mxCell>
                <mxCell id="5" value="" style="shape=module;jettyWidth=8;jettyHeight=4;" parent="4" vertex="1">
                    <mxGeometry x="1" width="20" height="20" relative="1" as="geometry">
                        <mxPoint x="-27" y="7" as="offset"/>
                    </mxGeometry>
                </mxCell>
                <mxCell id="6" value="Workspace-Job" style="html=1;dropTarget=0;" parent="1" vertex="1">
                    <mxGeometry x="310" y="520" width="150" height="60" as="geometry"/>
                </mxCell>
                <mxCell id="7" value="" style="shape=module;jettyWidth=8;jettyHeight=4;" parent="6" vertex="1">
                    <mxGeometry x="1" width="20" height="20" relative="1" as="geometry">
                        <mxPoint x="-27" y="7" as="offset"/>
                    </mxGeometry>
                </mxCell>
                <mxCell id="8" value="RocketMQ" style="html=1;dropTarget=0;" parent="1" vertex="1">
                    <mxGeometry x="310" y="380" width="150" height="60" as="geometry"/>
                </mxCell>
                <mxCell id="9" value="" style="shape=module;jettyWidth=8;jettyHeight=4;" parent="8" vertex="1">
                    <mxGeometry x="1" width="20" height="20" relative="1" as="geometry">
                        <mxPoint x="-27" y="7" as="offset"/>
                    </mxGeometry>
                </mxCell>
                <mxCell id="10" value="" style="shape=singleArrow;direction=south;whiteSpace=wrap;html=1;arrowWidth=0.4442105263157919;arrowSize=0.27894736842105206;fillColor=#dae8fc;strokeColor=#6c8ebf;" parent="1" vertex="1">
                    <mxGeometry x="360" y="320" width="50" height="50" as="geometry"/>
                </mxCell>
                <mxCell id="11" value="" style="shape=singleArrow;direction=south;whiteSpace=wrap;html=1;arrowWidth=0.4442105263157919;arrowSize=0.27894736842105206;fillColor=#dae8fc;strokeColor=#6c8ebf;" parent="1" vertex="1">
                    <mxGeometry x="360" y="460" width="50" height="50" as="geometry"/>
                </mxCell>
                <mxCell id="13" value="K8S API" style="html=1;dropTarget=0;" parent="1" vertex="1">
                    <mxGeometry x="310" y="690" width="150" height="60" as="geometry"/>
                </mxCell>
                <mxCell id="14" value="" style="shape=module;jettyWidth=8;jettyHeight=4;" parent="13" vertex="1">
                    <mxGeometry x="1" width="20" height="20" relative="1" as="geometry">
                        <mxPoint x="-27" y="7" as="offset"/>
                    </mxGeometry>
                </mxCell>
                <mxCell id="15" value="" style="shape=singleArrow;direction=south;whiteSpace=wrap;html=1;arrowWidth=0.4442105263157919;arrowSize=0.27894736842105206;fillColor=#dae8fc;strokeColor=#6c8ebf;" parent="1" vertex="1">
                    <mxGeometry x="360" y="610" width="50" height="50" as="geometry"/>
                </mxCell>
                <mxCell id="30" value="" style="shape=singleArrow;direction=south;whiteSpace=wrap;html=1;arrowWidth=0.4442105263157919;arrowSize=0.27894736842105206;fillColor=#dae8fc;strokeColor=#6c8ebf;" parent="1" vertex="1">
                    <mxGeometry x="370" y="620" width="50" height="50" as="geometry"/>
                </mxCell>
                <mxCell id="16" value="发送消息" style="text;html=1;align=center;verticalAlign=middle;resizable=0;points=[];autosize=1;strokeColor=none;fillColor=none;" parent="1" vertex="1">
                    <mxGeometry x="395" y="325" width="70" height="30" as="geometry"/>
                </mxCell>
                <mxCell id="17" value="接收消息" style="text;html=1;align=center;verticalAlign=middle;resizable=0;points=[];autosize=1;strokeColor=none;fillColor=none;" parent="1" vertex="1">
                    <mxGeometry x="395" y="470" width="70" height="30" as="geometry"/>
                </mxCell>
                <mxCell id="18" value="多任务并行调用" style="text;html=1;align=center;verticalAlign=middle;resizable=0;points=[];autosize=1;strokeColor=none;fillColor=none;" parent="1" vertex="1">
                    <mxGeometry x="395" y="610" width="110" height="30" as="geometry"/>
                </mxCell>
                <mxCell id="19" value="更新状态" style="shape=flexArrow;endArrow=classic;html=1;fillColor=#fff2cc;strokeColor=#d6b656;" parent="1" edge="1">
                    <mxGeometry width="50" height="50" relative="1" as="geometry">
                        <mxPoint x="480" y="545" as="sourcePoint"/>
                        <mxPoint x="480" y="270" as="targetPoint"/>
                        <Array as="points">
                            <mxPoint x="580" y="545"/>
                            <mxPoint x="580" y="270"/>
                        </Array>
                    </mxGeometry>
                </mxCell>
                <mxCell id="29" value="执行完成" style="shape=flexArrow;endArrow=classic;html=1;fillColor=#fff2cc;strokeColor=#d6b656;" parent="1" edge="1">
                    <mxGeometry width="50" height="50" relative="1" as="geometry">
                        <mxPoint x="490" y="700" as="sourcePoint"/>
                        <mxPoint x="480" y="570" as="targetPoint"/>
                        <Array as="points">
                            <mxPoint x="580" y="700"/>
                            <mxPoint x="580" y="570"/>
                        </Array>
                    </mxGeometry>
                </mxCell>
                <mxCell id="22" value="用户" style="shape=umlActor;verticalLabelPosition=bottom;verticalAlign=top;html=1;" parent="1" vertex="1">
                    <mxGeometry x="150" y="240" width="30" height="60" as="geometry"/>
                </mxCell>
                <mxCell id="25" value="" style="shape=singleArrow;direction=south;whiteSpace=wrap;html=1;arrowWidth=0.4442105263157919;arrowSize=0.27894736842105206;rotation=-90;fillColor=#dae8fc;strokeColor=#6c8ebf;" parent="1" vertex="1">
                    <mxGeometry x="220" y="230" width="50" height="90" as="geometry"/>
                </mxCell>
                <mxCell id="26" value="&lt;span style=&quot;background-color: rgb(255, 255, 255);&quot;&gt;创建工作空间&lt;/span&gt;" style="text;html=1;align=center;verticalAlign=middle;resizable=0;points=[];autosize=1;strokeColor=none;fillColor=none;" parent="1" vertex="1">
                    <mxGeometry x="190" y="230" width="100" height="30" as="geometry"/>
                </mxCell>
                <mxCell id="31" value="创建任务" style="text;html=1;align=center;verticalAlign=middle;resizable=0;points=[];autosize=1;strokeColor=none;fillColor=none;" parent="1" vertex="1">
                    <mxGeometry x="340" y="200" width="70" height="30" as="geometry"/>
                </mxCell>
            </root>
        </mxGraphModel>
    </diagram>
</mxfile>